# xmcd
#
# Track frame offsets:
#	150
#	16648
#	36473
#	52809
#	67265
#	81235
#	99841
#	115602
#	135696
#	150127
#	167573
#	183433
#	199987
#
# Disc length: 2867 seconds
#
# Revision: 3
# Processed by: cddbd v1.5.2PL0 Copyright (c) Steve Scherf et al.
# Submitted via: audiograbber 1.83.01
#
DISCID=9d0b310d
DTITLE=Various Artist - CDX 504
DYEAR=2010
DGENRE=Country
TTITLE0=Train - Hey Soul Sister (Country Mix)
TTITLE1=Kenny Chesney - The Boys Of Fall (Single Edit)
TTITLE2=George Strait - The Breath You Take
TTITLE3=Joe Nichols - The Shape I'm In
TTITLE4=Matt Kennon - You Can Still Wear White
TTITLE5=Burns and Poe - How Long Is Long Enough
TTITLE6=Julie Ingram - I Love You
TTITLE7=Chris Filer - John Deere, John
TTITLE8=Mike Aiken - I Love You Tonight
TTITLE9=Johnny Tillotson - Not Enough
TTITLE10=Johnny A - Politicians
TTITLE11=Jeff Olson - Rhythm Of The Rail
TTITLE12=Kentucky Linemen - Walk On
EXTD=
EXTT0=
EXTT1=
EXTT2=
EXTT3=
EXTT4=
EXTT5=
EXTT6=
EXTT7=
EXTT8=
EXTT9=
EXTT10=
EXTT11=
EXTT12=
PLAYORDER=
